<svg width="34" height="34" viewBox="0 0 34 34" fill="none" xmlns="http://www.w3.org/2000/svg">
  <path fill-rule="evenodd" clip-rule="evenodd" d="M28.3276 5.66553H5.66552C4.10751 5.66553 2.84693 6.94027 2.84693 8.49829L2.83276 25.4948C2.83276 27.0529 4.10751 28.3276 5.66552 28.3276H28.3276C29.8856 28.3276 31.1604 27.0529 31.1604 25.4948V8.49829C31.1604 6.94027 29.8856 5.66553 28.3276 5.66553ZM28.3276 24.0785C28.3276 24.8575 27.6902 25.4948 26.9112 25.4948H7.08192C6.30291 25.4948 5.66554 24.8575 5.66554 24.0785V11.331L15.4952 17.4781C16.4159 18.0589 17.5773 18.0589 18.4979 17.4781L28.3276 11.331V24.0785ZM5.66554 8.49829L16.9966 15.5802L28.3276 8.49829H5.66554Z" fill="#0095D9"/>
</svg>