<svg width="34" height="34" viewBox="0 0 34 34" fill="none" xmlns="http://www.w3.org/2000/svg">
  <path d="M27.2253 21.6255L23.6277 21.2147C22.7637 21.1156 21.9139 21.413 21.3049 22.0221L18.6987 24.6282C14.6904 22.5886 11.4044 19.3168 9.36478 15.2943L11.9851 12.674C12.5941 12.0649 12.8916 11.2151 12.7924 10.3511L12.3817 6.78183C12.2117 5.35129 11.0078 4.27484 9.56307 4.27484H7.11273C5.51222 4.27484 4.18083 5.60624 4.27997 7.20675C5.03065 19.3026 14.7045 28.9623 26.7863 29.713C28.3868 29.8122 29.7182 28.4808 29.7182 26.8803V24.4299C29.7323 22.9994 28.6559 21.7955 27.2253 21.6255Z" fill="#0095D9"/>
</svg>