<svg width="123" height="123" viewBox="0 0 123 123" fill="none" xmlns="http://www.w3.org/2000/svg">
<path d="M117.234 78.7969V117.234H59.5781V109.547H36.5156V113.391C36.5187 114.409 36.9246 115.385 37.6448 116.105C38.365 116.825 39.3409 117.231 40.3594 117.234H5.76562V89.4441C5.76611 88.5969 6.04466 87.7733 6.5585 87.0997C7.07234 86.4262 7.79306 85.9399 8.61 85.7156L11.5505 84.9277L11.5312 84.87V42.2812C11.5312 44.3201 12.3412 46.2754 13.7829 47.7171C15.2246 49.1588 17.1799 49.9688 19.2188 49.9688H19.2956C19.6617 54.3955 21.3009 58.6217 24.0154 62.1376C26.7299 65.6535 30.4037 68.3089 34.5938 69.7833V78.7969L32.9794 79.2197L26.9062 80.8533V90.3281H32.6719V98.0156L42.2812 92.25L51.8906 98.0156V90.3281H57.6562V80.8341L51.5831 79.2197L49.9688 78.7969V69.7833C54.1588 68.3089 57.8326 65.6535 60.5471 62.1376C63.2616 58.6217 64.9008 54.3955 65.2669 49.9688H65.3438C67.3826 49.9688 69.3379 49.1588 70.7796 47.7171C72.2213 46.2754 73.0312 44.3201 73.0312 42.2812V74.9531H113.391C114.409 74.9562 115.385 75.3621 116.105 76.0823C116.825 76.8025 117.231 77.7784 117.234 78.7969Z" fill="#DFF3FE"/>
<path d="M19.2188 34.5938L27.233 26.5795C27.7193 26.0856 28.2537 25.6414 28.8281 25.2534C31.0731 23.6978 33.7973 22.9895 36.5156 23.2547C37.6377 23.3661 38.738 23.638 39.7828 24.0619L65.3438 34.5938C66.3536 34.5925 67.3539 34.7905 68.2871 35.1763C69.2204 35.5622 70.0684 36.1284 70.7825 36.8425C71.4966 37.5566 72.0628 38.4046 72.4487 39.3379C72.8345 40.2711 73.0325 41.2714 73.0313 42.2812V36.5156C73.0313 28.3602 69.7915 20.5388 64.0248 14.7721C58.258 9.00535 50.4367 5.76563 42.2813 5.76562C34.1258 5.76563 26.3045 9.00535 20.5377 14.7721C14.771 20.5388 11.5313 28.3602 11.5313 36.5156V42.2812C11.53 41.2714 11.728 40.2711 12.1139 39.3379C12.4997 38.4046 13.066 37.5566 13.7801 36.8425C14.4942 36.1284 15.3421 35.5622 16.2754 35.1763C17.2086 34.7905 18.2089 34.5925 19.2188 34.5938Z" fill="#DFF3FE"/>
<path d="M30.75 44.2031C31.2597 44.2031 31.7486 44.4056 32.109 44.766C32.4694 45.1264 32.6719 45.6153 32.6719 46.125H36.5156C36.5156 44.5959 35.9082 43.1294 34.8269 42.0481C33.7456 40.9668 32.2791 40.3594 30.75 40.3594C29.2209 40.3594 27.7544 40.9668 26.6731 42.0481C25.5918 43.1294 24.9844 44.5959 24.9844 46.125H28.8281C28.8281 45.6153 29.0306 45.1264 29.391 44.766C29.7515 44.4056 30.2403 44.2031 30.75 44.2031Z" fill="#40C3FF"/>
<path d="M53.8125 44.2031C54.3222 44.2031 54.8111 44.4056 55.1715 44.766C55.5319 45.1264 55.7344 45.6153 55.7344 46.125H59.5781C59.5781 44.5959 58.9707 43.1294 57.8894 42.0481C56.8081 40.9668 55.3416 40.3594 53.8125 40.3594C52.2834 40.3594 50.8169 40.9668 49.7356 42.0481C48.6543 43.1294 48.0469 44.5959 48.0469 46.125H51.8906C51.8906 45.6153 52.0931 45.1264 52.4535 44.766C52.8139 44.4056 53.3028 44.2031 53.8125 44.2031Z" fill="#40C3FF"/>
<path d="M42.2812 63.4219C43.8104 63.4219 45.2769 62.8144 46.3582 61.7332C47.4394 60.6519 48.0469 59.1854 48.0469 57.6562H44.2031C44.2031 58.166 44.0006 58.6548 43.6402 59.0152C43.2798 59.3756 42.791 59.5781 42.2812 59.5781C41.7715 59.5781 41.2827 59.3756 40.9223 59.0152C40.5619 58.6548 40.3594 58.166 40.3594 57.6562H36.5156C36.5156 59.1854 37.1231 60.6519 38.2043 61.7332C39.2856 62.8144 40.7521 63.4219 42.2812 63.4219Z" fill="#40C3FF"/>
<path d="M113.391 73.0313H74.9531V36.5156C74.9531 27.8505 71.5109 19.5403 65.3838 13.4131C59.2566 7.28596 50.9464 3.84375 42.2812 3.84375C33.6161 3.84375 25.3059 7.28596 19.1787 13.4131C13.0516 19.5403 9.60938 27.8505 9.60938 36.5156V83.467L8.09109 83.8706C6.87219 84.2093 5.79744 84.9372 5.03064 85.9435C4.26383 86.9497 3.84703 88.179 3.84375 89.4441V117.234C3.84375 117.744 4.04623 118.233 4.40665 118.593C4.76708 118.954 5.25591 119.156 5.76562 119.156H117.234C117.744 119.156 118.233 118.954 118.593 118.593C118.954 118.233 119.156 117.744 119.156 117.234V78.7969C119.152 77.2691 118.543 75.8053 117.463 74.725C116.382 73.6447 114.918 73.0358 113.391 73.0313ZM42.2812 7.6875C49.5881 7.67578 56.6253 10.4469 61.9623 15.4376C67.2993 20.4283 70.5355 27.2641 71.0133 34.5553C69.5039 33.4576 67.7075 32.8232 65.8434 32.7295L40.5131 22.2938C39.8429 22.0124 39.148 21.7937 38.4375 21.6403V15.375H34.5938V21.2944C33.2794 21.3701 31.9838 21.6422 30.75 22.1016V15.375H26.9062V24.3309C26.5603 24.6192 26.1952 24.8883 25.8684 25.215L18.3347 32.7488C16.6063 32.9107 14.9534 33.5347 13.5492 34.5553C14.051 27.2729 17.2947 20.4514 22.6264 15.4656C27.9581 10.4798 34.9816 7.70038 42.2812 7.6875ZM71.1094 42.2813C71.1038 43.4679 70.7314 44.6238 70.0433 45.5906C69.3552 46.5574 68.385 47.2878 67.2656 47.6817V36.8616C68.0677 37.1487 68.8009 37.6004 69.4181 38.1877C70.4991 39.2762 71.1068 40.7472 71.1094 42.2813ZM42.2812 88.9444L35.9775 80.1038C36.3164 79.7523 36.5088 79.285 36.5156 78.7969V72.3394C40.304 73.2619 44.2585 73.2619 48.0469 72.3394V78.7969C48.0537 79.285 48.2461 79.7523 48.585 80.1038L42.2812 88.9444ZM52.3711 81.4298L55.7344 82.3139V88.4063H51.8906C51.3809 88.4063 50.8921 88.6087 50.5317 88.9692C50.1712 89.3296 49.9688 89.8184 49.9688 90.3281V94.6139L45.0488 91.6734L52.3711 81.4298ZM32.6719 88.4063H28.8281V82.3139L32.1914 81.4298L39.5137 91.6734L34.5938 94.6139V90.3281C34.5938 89.8184 34.3913 89.3296 34.0308 88.9692C33.6704 88.6087 33.1816 88.4063 32.6719 88.4063ZM42.2812 69.1875C36.6755 69.1839 31.3004 66.9555 27.3365 62.9916C23.3726 59.0278 21.1442 53.6526 21.1406 48.0469V35.3817L28.5975 27.9441C29.9353 26.5963 31.644 25.6774 33.5059 25.3043C35.3679 24.9312 37.2988 25.1209 39.0525 25.8492L63.4219 35.8814V48.0469C63.4183 53.6526 61.1899 59.0278 57.226 62.9916C53.2621 66.9555 47.887 69.1839 42.2812 69.1875ZM15.1252 38.2069C15.7433 37.6067 16.4842 37.1477 17.2969 36.8616V47.7009C16.3809 47.3768 15.5617 46.8264 14.9153 46.101C14.2689 45.3755 13.8164 44.4984 13.5997 43.5512C13.3831 42.604 13.4093 41.6175 13.676 40.6831C13.9427 39.7488 14.4412 38.897 15.1252 38.2069ZM13.4531 49.9111C14.6716 50.838 16.0956 51.4577 17.6044 51.7177C18.2367 55.9727 19.9556 59.9927 22.595 63.3895C25.2344 66.7864 28.7051 69.4453 32.6719 71.1094V77.317L13.4531 82.4292V49.9111ZM34.5938 109.547V113.391C34.5989 114.046 34.7159 114.696 34.9397 115.313H23.0625C21.449 115.313 19.8765 114.805 18.5675 113.861C17.2586 112.918 16.2797 111.587 15.7695 110.056C15.2593 108.525 15.2436 106.873 15.7247 105.333C16.2058 103.793 17.1592 102.443 18.45 101.475L16.1437 98.4C14.8633 99.3579 13.7967 100.572 13.012 101.965C12.2272 103.359 11.7416 104.9 11.5861 106.492C11.4305 108.083 11.6085 109.689 12.1087 111.208C12.6089 112.727 13.4202 114.125 14.4909 115.313H7.6875V89.4441C7.68822 89.0206 7.82768 88.609 8.08453 88.2724C8.34137 87.9357 8.70146 87.6924 9.10969 87.5798L24.9844 83.3517V90.3281C24.9844 90.8378 25.1869 91.3267 25.5473 91.6871C25.9077 92.0475 26.3965 92.25 26.9062 92.25H30.75V98.0156C30.749 98.3565 30.8394 98.6914 31.0118 98.9855C31.1841 99.2796 31.4322 99.522 31.7302 99.6877C32.0155 99.855 32.3411 99.9413 32.6719 99.9375C33.0168 99.9374 33.3554 99.8445 33.652 99.6684L40.3594 95.6517V107.625H36.5156C36.0059 107.625 35.5171 107.827 35.1567 108.188C34.7962 108.548 34.5938 109.037 34.5938 109.547ZM57.6562 115.313H40.3594C39.8497 115.313 39.3608 115.11 39.0004 114.75C38.64 114.389 38.4375 113.9 38.4375 113.391V111.469H57.6562V115.313ZM57.6562 107.625H44.2031V95.6517L50.9105 99.6684C51.2023 99.8414 51.5346 99.9341 51.8738 99.9371C52.213 99.9401 52.547 99.8532 52.8418 99.6853C53.1365 99.5174 53.3816 99.2745 53.5521 98.9813C53.7226 98.688 53.8124 98.3548 53.8125 98.0156V92.25H57.6562V107.625ZM57.6562 78.7969V78.8545L51.8906 77.317V71.1094C55.8574 69.4453 59.3281 66.7864 61.9675 63.3895C64.6069 59.9927 66.3258 55.9727 66.9581 51.7177C68.4719 51.4747 69.8999 50.8533 71.1094 49.9111V73.0313H63.4219C61.8941 73.0358 60.4303 73.6447 59.35 74.725C58.2697 75.8053 57.6608 77.2691 57.6562 78.7969ZM115.312 115.313H61.5V78.7969C61.5 78.2872 61.7025 77.7983 62.0629 77.4379C62.4233 77.0775 62.9122 76.875 63.4219 76.875H113.391C113.9 76.875 114.389 77.0775 114.75 77.4379C115.11 77.7983 115.312 78.2872 115.312 78.7969V115.313Z" fill="#40C3FF"/>
<path d="M88.4062 99.9375C90.5291 99.9375 92.25 98.2166 92.25 96.0938C92.25 93.9709 90.5291 92.25 88.4062 92.25C86.2834 92.25 84.5625 93.9709 84.5625 96.0938C84.5625 98.2166 86.2834 99.9375 88.4062 99.9375Z" fill="#40C3FF"/>
<path d="M67.2656 107.625H71.1094V111.469H67.2656V107.625Z" fill="#40C3FF"/>
<path d="M74.9531 107.625H78.7969V111.469H74.9531V107.625Z" fill="#40C3FF"/>
<path d="M82.6406 107.625H86.4844V111.469H82.6406V107.625Z" fill="#40C3FF"/>
<path d="M90.3281 107.625H94.1719V111.469H90.3281V107.625Z" fill="#40C3FF"/>
<path d="M98.0156 107.625H101.859V111.469H98.0156V107.625Z" fill="#40C3FF"/>
<path d="M105.703 107.625H109.547V111.469H105.703V107.625Z" fill="#40C3FF"/>
</svg>