<svg width="34" height="34" viewBox="0 0 34 34" fill="none" xmlns="http://www.w3.org/2000/svg">
  <path fill-rule="evenodd" clip-rule="evenodd" d="M17 2.83331C9.17998 2.83331 2.83331 9.17998 2.83331 17C2.83331 24.82 9.17998 31.1666 17 31.1666C24.82 31.1666 31.1666 24.82 31.1666 17C31.1666 9.17998 24.82 2.83331 17 2.83331ZM15.5833 28.2342C9.98748 27.54 5.66665 22.78 5.66665 17C5.66665 16.1217 5.77998 15.2858 5.96415 14.4642L12.75 21.25V22.6667C12.75 24.225 14.025 25.5 15.5833 25.5V28.2342ZM22.6666 22.6667C23.9416 22.6667 24.99 23.4883 25.3583 24.6358C27.2 22.6242 28.3333 19.9467 28.3333 17C28.3333 12.2542 25.4008 8.18832 21.25 6.50249V7.08332C21.25 8.64166 19.975 9.91666 18.4166 9.91666H15.5833V12.75C15.5833 13.5292 14.9458 14.1667 14.1666 14.1667H11.3333V17H19.8333C20.6125 17 21.25 17.6375 21.25 18.4167V22.6667H22.6666Z" fill="#0095D9"/>
</svg>