<svg width="123" height="123" viewBox="0 0 123 123" fill="none" xmlns="http://www.w3.org/2000/svg">
<path d="M99.375 99.375C98.1306 100.616 96.4451 101.313 94.6878 101.313C92.9305 101.313 91.245 100.616 90.0006 99.375L68.9331 78.2909L71.2684 75.9556L75.9556 71.2684L78.2909 68.9331L99.375 90.0006C100.616 91.245 101.313 92.9305 101.313 94.6878C101.313 96.4451 100.616 98.1306 99.375 99.375Z" fill="#DFF3FE"/>
<path d="M74.531 39.75C74.531 46.6291 72.4911 53.3537 68.6693 59.0734C64.8475 64.7932 59.4154 69.2512 53.06 71.8837C46.7045 74.5162 39.7112 75.205 32.9643 73.8629C26.2174 72.5209 20.02 69.2083 15.1557 64.3441C10.2915 59.4798 6.97888 53.2824 5.63683 46.5355C4.29479 39.7886 4.98358 32.7952 7.61609 26.4398C10.2486 20.0844 14.7066 14.6523 20.4263 10.8304C26.1461 7.00864 32.8707 4.96875 39.7498 4.96875C44.3225 4.95013 48.8537 5.83706 53.082 7.57839C57.3102 9.31971 61.1519 11.881 64.3853 15.1144C67.6188 18.3479 70.1801 22.1895 71.9214 26.4178C73.6627 30.6461 74.5496 35.1773 74.531 39.75ZM67.906 39.75C67.906 34.1812 66.2547 28.7375 63.1608 24.1072C60.067 19.477 55.6696 15.8681 50.5247 13.737C45.3798 11.6059 39.7185 11.0484 34.2568 12.1348C28.795 13.2212 23.778 15.9028 19.8403 19.8405C15.9026 23.7783 13.221 28.7952 12.1345 34.257C11.0481 39.7188 11.6057 45.3801 13.7368 50.5249C15.8679 55.6698 19.4767 60.0672 24.107 63.1611C28.7373 66.2549 34.181 67.9063 39.7498 67.9063C47.2173 67.9063 54.3789 64.9398 59.6592 59.6595C64.9396 54.3792 67.906 47.2175 67.906 39.75Z" fill="#DFF3FE"/>
<path d="M100.551 88.8412L79.4668 67.7572C79.1565 67.4487 78.7367 67.2756 78.2991 67.2756C77.8616 67.2756 77.4418 67.4487 77.1315 67.7572L75.9555 68.9166L68.7674 61.745C74.3576 54.3751 76.9414 45.1578 75.9963 35.956C75.0512 26.7542 70.6479 18.2545 63.6763 12.1748C56.7047 6.09508 47.685 2.88895 38.4402 3.20446C29.1954 3.51997 20.4152 7.33359 13.8743 13.8744C7.33349 20.4153 3.51987 29.1955 3.20436 38.4403C2.88885 47.6851 6.09498 56.7048 12.1747 63.6764C18.2544 70.648 26.7542 75.0513 35.9559 75.9964C45.1577 76.9415 54.375 74.3577 61.7449 68.7675L68.9165 75.9556L67.7571 77.1316C67.4486 77.4419 67.2755 77.8617 67.2755 78.2992C67.2755 78.7368 67.4486 79.1565 67.7571 79.4669L88.8411 100.551C90.403 102.059 92.4949 102.894 94.6662 102.875C96.8375 102.856 98.9146 101.985 100.45 100.45C101.985 98.9146 102.856 96.8376 102.875 94.6663C102.894 92.495 102.059 90.4031 100.551 88.8412ZM39.7499 72.875C33.1984 72.875 26.794 70.9322 21.3466 67.2924C15.8993 63.6526 11.6535 58.4792 9.14639 52.4264C6.63924 46.3736 5.98325 39.7132 7.26139 33.2876C8.53952 26.862 11.6944 20.9597 16.327 16.3271C20.9596 11.6945 26.8619 8.53962 33.2875 7.26149C39.7132 5.98335 46.3735 6.63934 52.4263 9.14649C58.4791 11.6536 63.6525 15.8994 67.2923 21.3467C70.9322 26.7941 72.8749 33.1985 72.8749 39.75C72.8661 48.5326 69.3734 56.953 63.1631 63.1632C56.9529 69.3735 48.5325 72.8662 39.7499 72.875ZM64.2955 66.6475C65.1203 65.9055 65.9054 65.1204 66.6474 64.2956L73.6036 71.2684L71.2683 73.6037L64.2955 66.6475ZM98.199 98.1991C97.2673 99.1295 96.0044 99.6522 94.6877 99.6522C93.371 99.6522 92.1081 99.1295 91.1765 98.1991L71.2683 78.2909L78.2908 71.2684L98.199 91.1766C99.1294 92.1082 99.6521 93.3711 99.6521 94.6878C99.6521 96.0045 99.1294 97.2674 98.199 98.1991Z" fill="#40C3FF"/>
<path d="M39.7498 9.9375C33.8534 9.9375 28.0895 11.686 23.1868 14.9618C18.2842 18.2377 14.463 22.8937 12.2066 28.3412C9.95017 33.7888 9.35979 39.7831 10.5101 45.5661C11.6604 51.3492 14.4998 56.6613 18.6691 60.8306C22.8385 65 28.1506 67.8393 33.9336 68.9897C39.7167 70.14 45.711 69.5496 51.1585 67.2932C56.606 65.0367 61.2621 61.2156 64.538 56.3129C67.8138 51.4103 69.5623 45.6464 69.5623 39.75C69.5504 31.8469 66.4057 24.2708 60.8173 18.6824C55.229 13.0941 47.6529 9.94933 39.7498 9.9375ZM39.7498 66.25C34.5086 66.25 29.3851 64.6958 25.0272 61.7839C20.6693 58.8721 17.2727 54.7333 15.267 49.8911C13.2612 45.0489 12.7365 39.7206 13.759 34.5801C14.7815 29.4396 17.3053 24.7178 21.0114 21.0117C24.7175 17.3056 29.4394 14.7817 34.5799 13.7592C39.7204 12.7367 45.0486 13.2615 49.8909 15.2672C54.7331 17.2729 58.8719 20.6695 61.7837 25.0274C64.6956 29.3853 66.2498 34.5088 66.2498 39.75C66.2406 46.7754 63.4457 53.5104 58.4779 58.4782C53.5102 63.4459 46.7752 66.2408 39.7498 66.25Z" fill="#40C3FF"/>
<path d="M75.9373 78.2942L78.2796 75.952L80.6218 78.2942L78.2796 80.6365L75.9373 78.2942Z" fill="#40C3FF"/>
<path d="M80.6184 82.9798L82.9603 80.6379L97.012 94.6895L94.67 97.0314L80.6184 82.9798Z" fill="#40C3FF"/>
<path d="M76.1875 13.25H79.5V9.9375H82.8125V6.625H79.5V3.3125H76.1875V6.625H72.875V9.9375H76.1875V13.25Z" fill="#40C3FF"/>
<path d="M96.0625 19.875H99.375V16.5625H102.688V13.25H99.375V9.9375H96.0625V13.25H92.75V16.5625H96.0625V19.875Z" fill="#40C3FF"/>
<path d="M81.1562 26.5V29.8125H84.4688V33.125H87.7812V29.8125H91.0938V26.5H87.7812V23.1875H84.4688V26.5H81.1562Z" fill="#40C3FF"/>
<path d="M33.125 81.1562H29.8125V84.4687H26.5V87.7812H29.8125V91.0937H33.125V87.7812H36.4375V84.4687H33.125V81.1562Z" fill="#40C3FF"/>
<path d="M13.25 81.1562V77.8437H9.9375V74.5312H6.625V77.8437H3.3125V81.1562H6.625V84.4687H9.9375V81.1562H13.25Z" fill="#40C3FF"/>
<path d="M19.875 92.75H16.5625V96.0625H13.25V99.375H16.5625V102.687H19.875V99.375H23.1875V96.0625H19.875V92.75Z" fill="#40C3FF"/>
<path d="M25.7598 46.2344C26.6777 46.2344 27.5078 46.0977 28.2598 45.8242L29.4316 47.4258H31.9023L30.0078 44.8574C31.6094 43.6172 32.4492 41.5566 32.4492 38.959C32.4492 34.457 29.8613 31.6738 25.7598 31.6738C21.668 31.6738 19.0801 34.4863 19.0801 38.959C19.0801 43.4316 21.6289 46.2344 25.7598 46.2344ZM25.7598 44.125C23.2305 44.125 21.6289 42.1035 21.6289 38.959C21.6289 35.8047 23.2305 33.7832 25.7598 33.7832C28.2988 33.7832 29.9102 35.8047 29.9102 38.959C29.9102 40.6484 29.4219 42.0352 28.5332 42.9043L27.5664 41.5859H25.0957L26.8633 43.9688C26.5215 44.0664 26.1602 44.125 25.7598 44.125ZM44.3633 46H47.1953L44.627 43.2949C45.3887 42.1914 45.8086 40.6777 45.8086 38.8027V38.0703H43.6992V38.6953C43.6992 40.0918 43.5234 41.0488 43.1328 41.752L40.1641 38.5391C42.1855 37.4551 43.0742 36.3418 43.0742 34.8965C43.0742 33.0312 41.502 31.7031 39.2852 31.7031C37.0781 31.7031 35.4473 33.0801 35.4473 34.9258C35.4473 35.9512 35.9258 36.8398 37.1953 38.168C37.1465 38.1875 36.7949 38.3828 36.5996 38.4805C34.7734 39.4668 33.9336 40.668 33.9336 42.2891C33.9336 44.6621 35.8672 46.2441 38.7773 46.2441C40.4766 46.2441 42.0879 45.6973 43.1914 44.7402L44.3633 46ZM37.957 39.7207C38.0352 39.6621 38.25 39.5449 38.3672 39.4961L41.8633 43.2949C41.248 43.9688 40.125 44.3984 39.0215 44.3984C37.3711 44.3984 36.2578 43.4707 36.2578 42.1035C36.2578 41.1562 36.7461 40.4727 37.957 39.7207ZM38.9824 37.3379C37.9766 36.3516 37.6055 35.7461 37.6055 35.0527C37.6055 34.1055 38.3086 33.4121 39.2949 33.4121C40.291 33.4121 40.9746 34.0859 40.9746 35.043C40.9746 35.9512 40.4082 36.6055 38.9824 37.3379ZM57.752 46H60.4082L55.4082 31.9082H52.5664L47.5664 46H50.1641L51.3652 42.3574H56.5508L57.752 46ZM53.9238 34.3984H53.9922L55.9551 40.4141H51.9512L53.9238 34.3984Z" fill="#40C3FF"/>
</svg>
