<svg width="127" height="128" viewBox="0 0 127 128" fill="none" xmlns="http://www.w3.org/2000/svg">
<path d="M121.047 64C121.047 67.9556 119.883 71.8224 117.703 75.1114C115.522 78.4004 112.423 80.9638 108.797 82.4776C105.171 83.9913 101.181 84.3874 97.3318 83.6157C93.4825 82.844 89.9467 80.9392 87.1715 78.1421C84.3963 75.3451 82.5064 71.7814 81.7407 67.9018C80.975 64.0222 81.368 60.0009 82.8699 56.3463C84.3718 52.6918 86.9152 49.5682 90.1785 47.3706C93.4418 45.173 97.2784 44 101.203 44C106.466 44 111.513 46.1071 115.235 49.8579C118.956 53.6086 121.047 58.6957 121.047 64Z" fill="#DFF3FE"/>
<path d="M83.3438 6L80.4664 11.78C80.1378 12.4464 79.6313 13.0073 79.0038 13.3994C78.3763 13.7916 77.6527 13.9996 76.9144 14H50.0856C49.3473 13.9996 48.6237 13.7916 47.9962 13.3994C47.3687 13.0073 46.8622 12.4464 46.5336 11.78L43.6562 6H83.3438Z" fill="#DFF3FE"/>
<path d="M45.6404 64C45.6373 68.2553 44.2891 72.399 41.7914 75.8298C39.2937 79.2606 35.7764 81.8001 31.7498 83.08C28.7778 84.0214 25.6276 84.2442 22.5542 83.7306C19.4809 83.2169 16.5707 81.9811 14.0592 80.1233C11.5477 78.2655 9.50552 75.8378 8.0979 73.0367C6.69028 70.2356 5.95679 67.1399 5.95679 64C5.95679 60.8601 6.69028 57.7644 8.0979 54.9633C9.50552 52.1622 11.5477 49.7345 14.0592 47.8767C16.5707 46.0189 19.4809 44.7831 22.5542 44.2694C25.6276 43.7558 28.7778 43.9786 31.7498 44.92C35.7764 46.1999 39.2937 48.7394 41.7914 52.1702C44.2891 55.6011 45.6373 59.7447 45.6404 64Z" fill="#DFF3FE"/>
<path d="M101.203 42C99.8714 42.0046 98.543 42.1318 97.2343 42.38V14C97.2343 11.3478 96.189 8.8043 94.3283 6.92893C92.4676 5.05357 89.9439 4 87.3125 4H39.6875C37.056 4 34.5323 5.05357 32.6716 6.92893C30.8109 8.8043 29.7656 11.3478 29.7656 14V42.38C26.6122 41.7815 23.3667 41.8911 20.2602 42.7009C17.1536 43.5107 14.2624 45.0009 11.7924 47.0653C9.32245 49.1297 7.33443 51.7176 5.96991 54.6446C4.60539 57.5717 3.89795 60.766 3.89795 64C3.89795 67.234 4.60539 70.4283 5.96991 73.3554C7.33443 76.2824 9.32245 78.8703 11.7924 80.9347C14.2624 82.9991 17.1536 84.4893 20.2602 85.2991C23.3667 86.1089 26.6122 86.2185 29.7656 85.62V114C29.7656 116.652 30.8109 119.196 32.6716 121.071C34.5323 122.946 37.056 124 39.6875 124H87.3125C89.9439 124 92.4676 122.946 94.3283 121.071C96.189 119.196 97.2343 116.652 97.2343 114V85.62C100.222 86.187 103.295 86.1186 106.255 85.4192C109.215 84.7199 111.998 83.4049 114.425 81.5586C116.851 79.7123 118.868 77.3754 120.347 74.6977C121.825 72.02 122.733 69.0605 123.01 66.0089C123.288 62.9573 122.93 59.8809 121.959 56.9768C120.989 54.0727 119.427 51.405 117.374 49.1447C115.321 46.8844 112.822 45.0813 110.037 43.851C107.252 42.6206 104.244 41.9902 101.203 42ZM80.129 8L78.7003 10.9C78.5339 11.2329 78.2785 11.5122 77.9629 11.7066C77.6473 11.901 77.2841 12.0026 76.9143 12H50.0856C49.7158 12.0026 49.3526 11.901 49.037 11.7066C48.7215 11.5122 48.4661 11.2329 48.2996 10.9L46.8709 8H80.129ZM25.7968 82C22.2646 82 18.8117 80.9443 15.8747 78.9665C12.9377 76.9886 10.6487 74.1774 9.29692 70.8883C7.94519 67.5992 7.59151 63.98 8.28062 60.4884C8.96973 56.9967 10.6707 53.7894 13.1683 51.2721C15.666 48.7547 18.8483 47.0404 22.3126 46.3459C25.777 45.6513 29.3679 46.0078 32.6313 47.3702C35.8947 48.7325 38.6839 51.0397 40.6464 53.9997C42.6088 56.9598 43.6562 60.4399 43.6562 64C43.6489 68.7716 41.7649 73.3457 38.4172 76.7197C35.0695 80.0938 30.5312 81.9926 25.7968 82ZM93.2656 114C93.2609 115.59 92.6322 117.113 91.5167 118.237C90.4013 119.362 88.8899 119.995 87.3125 120H39.6875C38.11 119.995 36.5986 119.362 35.4832 118.237C34.3678 117.113 33.739 115.59 33.7343 114V84.48C37.8264 82.8729 41.3417 80.058 43.82 76.4038C46.2984 72.7496 47.6244 68.4263 47.6244 64C47.6244 59.5737 46.2984 55.2504 43.82 51.5962C41.3417 47.942 37.8264 45.1271 33.7343 43.52V14C33.739 12.4102 34.3678 10.8868 35.4832 9.7626C36.5986 8.63841 38.11 8.00475 39.6875 8H42.4259L44.7476 12.68C45.2411 13.6805 46.0027 14.5217 46.9461 15.1085C47.8895 15.6952 48.977 16.004 50.0856 16H76.9143C78.0229 16.004 79.1104 15.6952 80.0538 15.1085C80.9972 14.5217 81.7588 13.6805 82.2523 12.68L84.574 8H87.3125C88.8899 8.00475 90.4013 8.63841 91.5167 9.7626C92.6322 10.8868 93.2609 12.4102 93.2656 14V43.52C89.1735 45.1271 85.6582 47.942 83.1799 51.5962C80.7015 55.2504 79.3755 59.5737 79.3755 64C79.3755 68.4263 80.7015 72.7496 83.1799 76.4038C85.6582 80.058 89.1735 82.8729 93.2656 84.48V114ZM101.203 82C97.6708 82 94.2179 80.9443 91.2809 78.9665C88.344 76.9886 86.0549 74.1774 84.7032 70.8883C83.3514 67.5992 82.9978 63.98 83.6869 60.4884C84.376 56.9967 86.0769 53.7894 88.5746 51.2721C91.0723 48.7547 94.2545 47.0404 97.7189 46.3459C101.183 45.6513 104.774 46.0078 108.038 47.3702C111.301 48.7325 114.09 51.0397 116.053 53.9997C118.015 56.9598 119.062 60.4399 119.062 64C119.055 68.7716 117.171 73.3457 113.823 76.7197C110.476 80.0938 105.937 81.9926 101.203 82Z" fill="#40C3FF"/>
<path d="M78.4521 35.762L80.3254 32.236C75.1324 29.5078 69.3629 28.0832 63.5068 28.0832C57.6507 28.0832 51.8812 29.5078 46.6882 32.236L48.5615 35.764C53.1762 33.3404 58.3029 32.0747 63.5066 32.0743C68.7102 32.074 73.8371 33.339 78.4521 35.762Z" fill="#40C3FF"/>
<path d="M48.5615 92.244L46.6882 95.772C51.8655 98.5507 57.6412 100.004 63.5068 100.004C69.3724 100.004 75.1481 98.5507 80.3254 95.772L78.4521 92.246C73.8371 94.669 68.7102 95.934 63.5066 95.9337C58.3029 95.9333 53.1762 94.6676 48.5615 92.244Z" fill="#40C3FF"/>
<path d="M74.8308 65.42L69.2151 71.08L66.3972 68.24L68.6396 66H58.3605L60.6029 68.24L57.785 71.08L52.1693 65.42C51.7975 65.0424 51.5889 64.532 51.5889 64C51.5889 63.468 51.7975 62.9576 52.1693 62.58L57.785 56.92L60.6029 59.76L58.3605 62H68.6396L66.3972 59.76L69.2151 56.92L74.8308 62.58C75.2026 62.9576 75.4112 63.468 75.4112 64C75.4112 64.532 75.2026 65.0424 74.8308 65.42Z" fill="#40C3FF"/>
<path fill-rule="evenodd" clip-rule="evenodd" d="M24.83 52H32C33.1 52 34 52.9 34 54V70C34 71.1 33.1 72 32 72H20C18.9 72 18 71.1 18 70V58.82C18 58.3 18.23 57.79 18.6 57.42L23.41 52.59C23.79 52.21 24.3 52 24.83 52ZM24 57C24 57.55 24.45 58 25 58C25.55 58 26 57.55 26 57V55C26 54.45 25.55 54 25 54C24.45 54 24 54.45 24 55V57ZM28 58C27.45 58 27 57.55 27 57V55C27 54.45 27.45 54 28 54C28.55 54 29 54.45 29 55V57C29 57.55 28.55 58 28 58ZM30 57C30 57.55 30.45 58 31 58C31.55 58 32 57.55 32 57V55C32 54.45 31.55 54 31 54C30.45 54 30 54.45 30 55V57Z" fill="#40C3FF"/>
<path fill-rule="evenodd" clip-rule="evenodd" d="M99.83 52H107C108.1 52 109 52.9 109 54V70C109 71.1 108.1 72 107 72H95C93.9 72 93 71.1 93 70V58.82C93 58.3 93.23 57.79 93.6 57.42L98.41 52.59C98.79 52.21 99.3 52 99.83 52ZM99 57C99 57.55 99.45 58 100 58C100.55 58 101 57.55 101 57V55C101 54.45 100.55 54 100 54C99.45 54 99 54.45 99 55V57ZM103 58C102.45 58 102 57.55 102 57V55C102 54.45 102.45 54 103 54C103.55 54 104 54.45 104 55V57C104 57.55 103.55 58 103 58ZM105 57C105 57.55 105.45 58 106 58C106.55 58 107 57.55 107 57V55C107 54.45 106.55 54 106 54C105.45 54 105 54.45 105 55V57Z" fill="#40C3FF"/>
</svg>