<svg width="117" height="117" viewBox="0 0 117 117" fill="none" xmlns="http://www.w3.org/2000/svg">
<path d="M111.516 49.3594V56.6719C111.516 58.6113 110.745 60.4712 109.374 61.8426C108.002 63.214 106.143 63.9844 104.203 63.9844H45.7031V56.6719H49.3594V49.3594H111.516Z" fill="#DFF3FE"/>
<path d="M96.8906 96.8906H93.2344C91.2151 96.8906 89.5781 98.5276 89.5781 100.547V107.859C89.5781 109.879 91.2151 111.516 93.2344 111.516H96.8906C98.9099 111.516 100.547 109.879 100.547 107.859V100.547C100.547 98.5276 98.9099 96.8906 96.8906 96.8906Z" fill="#DFF3FE"/>
<path d="M87.75 78.6094V85.9219H51.1875V78.6094C51.1904 77.6406 51.5765 76.7123 52.2616 76.0272C52.9466 75.3422 53.8749 74.956 54.8438 74.9531H84.0938C85.0626 74.956 85.9909 75.3422 86.6759 76.0272C87.361 76.7123 87.7471 77.6406 87.75 78.6094Z" fill="#DFF3FE"/>
<path d="M31.0781 45.7031H49.3594V56.6719H31.0781V45.7031Z" fill="#DFF3FE"/>
<path d="M31.0781 56.6719H45.7031V85.9219H31.0781V56.6719Z" fill="#DFF3FE"/>
<path d="M9.14062 56.6719H23.7656V85.9219H9.14062V56.6719Z" fill="#DFF3FE"/>
<path d="M5.48438 45.7031H23.7656V56.6719H5.48438V45.7031Z" fill="#DFF3FE"/>
<path d="M104.203 3.65625H34.7344C32.3101 3.65625 29.9852 4.61928 28.271 6.33348C26.5568 8.04768 25.5938 10.3726 25.5938 12.7969V25.5938H25.5023C24.6068 25.5938 23.725 25.8139 22.9344 26.2347C22.1438 26.6554 21.4688 27.264 20.9686 28.0069C20.7753 28.308 20.6101 28.6262 20.475 28.9575C20.1535 28.8097 19.8162 28.6993 19.4695 28.6284C18.5897 28.4589 17.6818 28.5069 16.8248 28.7681C15.9678 29.0294 15.1875 29.496 14.5519 30.1275L11.8462 32.8331C11.215 33.4683 10.7484 34.2481 10.4872 35.1046C10.226 35.9612 10.178 36.8686 10.3474 37.748C10.5167 38.6273 10.8984 39.452 11.4591 40.1502C12.0198 40.8485 12.7426 41.3991 13.5647 41.7544L18.5189 43.875H5.48438C4.99953 43.875 4.53454 44.0676 4.1917 44.4104C3.84886 44.7533 3.65625 45.2183 3.65625 45.7031V56.6719C3.65625 57.1567 3.84886 57.6217 4.1917 57.9646C4.53454 58.3074 4.99953 58.5 5.48438 58.5H7.3125V85.9219C7.3125 86.4067 7.50511 86.8717 7.84795 87.2146C8.19079 87.5574 8.65578 87.75 9.14062 87.75H45.7031C46.188 87.75 46.653 87.5574 46.9958 87.2146C47.3386 86.8717 47.5312 86.4067 47.5312 85.9219V65.8125H60.3281V73.125H54.8438C53.3905 73.1293 51.9981 73.7085 50.9705 74.7361C49.9429 75.7637 49.3637 77.1562 49.3594 78.6094V85.9219C49.3594 86.4067 49.552 86.8717 49.8948 87.2146C50.2377 87.5574 50.7027 87.75 51.1875 87.75H87.75C88.2348 87.75 88.6998 87.5574 89.0427 87.2146C89.3855 86.8717 89.5781 86.4067 89.5781 85.9219V78.6094C89.5738 77.1562 88.9946 75.7637 87.967 74.7361C86.9394 73.7085 85.547 73.1293 84.0938 73.125H78.6094V65.8125H104.203C106.627 65.8125 108.952 64.8495 110.667 63.1353C112.381 61.4211 113.344 59.0961 113.344 56.6719V12.7969C113.344 10.3726 112.381 8.04768 110.667 6.33348C108.952 4.61928 106.627 3.65625 104.203 3.65625ZM24.0033 30.0544C24.1655 29.8052 24.3878 29.6008 24.6498 29.4602C24.9118 29.3196 25.205 29.2473 25.5023 29.25H29.3414C29.6385 29.2527 29.9305 29.3277 30.1921 29.4687C30.4537 29.6096 30.677 29.8122 30.8426 30.0589C31.0083 30.3056 31.1113 30.5889 31.1428 30.8843C31.1742 31.1798 31.1332 31.4785 31.0233 31.7545L27.4219 40.7855L23.8205 31.7545C23.7048 31.4788 23.6609 31.1782 23.6929 30.8809C23.7249 30.5836 23.8316 30.2992 24.0033 30.0544ZM21.9375 84.0938H10.9688V58.5H21.9375V84.0938ZM21.9375 54.8438H7.3125V47.5312H21.9375V54.8438ZM15.0089 38.3906C14.7336 38.2734 14.4914 38.0904 14.3033 37.8578C14.1153 37.6251 13.9872 37.3498 13.9303 37.0561C13.8732 36.7637 13.8901 36.4617 13.9795 36.1775C14.0689 35.8934 14.2279 35.6361 14.4422 35.4291L17.1478 32.7234C17.3135 32.5509 17.5121 32.4135 17.732 32.3192C17.9518 32.225 18.1883 32.176 18.4275 32.175C18.5441 32.1781 18.6602 32.1904 18.7748 32.2116C19.0686 32.2684 19.3438 32.3965 19.5765 32.5846C19.8092 32.7726 19.9922 33.0149 20.1094 33.2902L23.9484 42.2297L15.0089 38.3906ZM29.25 84.0938H25.5938V58.5H29.25V84.0938ZM29.25 54.8438H25.5938V47.5312H29.25V54.8438ZM34.7344 33.2902C34.8516 33.0149 35.0346 32.7726 35.2672 32.5846C35.4999 32.3965 35.7752 32.2684 36.0689 32.2116C36.1836 32.1904 36.2997 32.1781 36.4162 32.175C36.6554 32.176 36.892 32.225 37.1118 32.3192C37.3316 32.4135 37.5303 32.5509 37.6959 32.7234L40.4016 35.4291C40.6158 35.6361 40.7749 35.8934 40.8643 36.1775C40.9537 36.4617 40.9706 36.7637 40.9134 37.0561C40.8566 37.3498 40.7285 37.6251 40.5404 37.8578C40.3524 38.0904 40.1101 38.2734 39.8348 38.3906L30.8953 42.2297L34.7344 33.2902ZM43.875 84.0938H32.9062V58.5H43.875V84.0938ZM32.9062 54.8438V47.5312H47.5312V54.8438H32.9062ZM84.0938 76.7812C84.5786 76.7812 85.0436 76.9739 85.3864 77.3167C85.7293 77.6595 85.9219 78.1245 85.9219 78.6094V84.0938H53.0156V78.6094C53.0156 78.1245 53.2082 77.6595 53.5511 77.3167C53.8939 76.9739 54.3589 76.7812 54.8438 76.7812H84.0938ZM63.9844 73.125V65.8125H74.9531V73.125H63.9844ZM109.688 56.6719C109.683 58.1251 109.104 59.5175 108.076 60.5451C107.049 61.5727 105.656 62.1519 104.203 62.1562H47.5312V58.5H49.3594C49.8442 58.5 50.3092 58.3074 50.6521 57.9646C50.9949 57.6217 51.1875 57.1567 51.1875 56.6719V51.1875H109.688V56.6719ZM109.688 47.5312H51.1875V45.7031C51.1875 45.2183 50.9949 44.7533 50.6521 44.4104C50.3092 44.0676 49.8442 43.875 49.3594 43.875H36.3248L41.2791 41.7544C42.1011 41.3991 42.8239 40.8485 43.3846 40.1502C43.9454 39.452 44.327 38.6273 44.4964 37.748C44.6658 36.8686 44.6178 35.9612 44.3565 35.1046C44.0953 34.2481 43.6288 33.4683 42.9975 32.8331L40.2919 30.1275C39.6555 29.4971 38.8752 29.0311 38.0184 28.77C37.1616 28.5088 36.254 28.4602 35.3742 28.6284C35.0276 28.6993 34.6902 28.8097 34.3687 28.9575C34.2336 28.6262 34.0684 28.308 33.8752 28.0069C33.375 27.264 32.6999 26.6554 31.9093 26.2347C31.1188 25.8139 30.237 25.5938 29.3414 25.5938H29.25V12.7969C29.2543 11.3437 29.8335 9.95121 30.8611 8.92363C31.8887 7.89605 33.2812 7.31684 34.7344 7.3125H104.203C105.656 7.31684 107.049 7.89605 108.076 8.92363C109.104 9.95121 109.683 11.3437 109.688 12.7969V47.5312Z" fill="#40C3FF"/>
<path d="M102.375 54.8438H106.031V58.5H102.375V54.8438Z" fill="#40C3FF"/>
<path d="M95.0625 54.8438H98.7188V58.5H95.0625V54.8438Z" fill="#40C3FF"/>
<path d="M87.75 54.8438H91.4062V58.5H87.75V54.8438Z" fill="#40C3FF"/>
<path d="M67.6406 91.4062H20.1094C18.6548 91.4062 17.2599 91.9841 16.2313 93.0126C15.2028 94.0411 14.625 95.4361 14.625 96.8906V107.859C14.625 109.314 15.2028 110.709 16.2313 111.737C17.2599 112.766 18.6548 113.344 20.1094 113.344H67.6406C69.0952 113.344 70.4901 112.766 71.5187 111.737C72.5472 110.709 73.125 109.314 73.125 107.859V96.8906C73.125 95.4361 72.5472 94.0411 71.5187 93.0126C70.4901 91.9841 69.0952 91.4062 67.6406 91.4062ZM69.4688 107.859C69.4688 108.344 69.2761 108.809 68.9333 109.152C68.5905 109.495 68.1255 109.688 67.6406 109.688H20.1094C19.6245 109.688 19.1595 109.495 18.8167 109.152C18.4739 108.809 18.2812 108.344 18.2812 107.859V96.8906C18.2812 96.4058 18.4739 95.9408 18.8167 95.5979C19.1595 95.2551 19.6245 95.0625 20.1094 95.0625H67.6406C68.1255 95.0625 68.5905 95.2551 68.9333 95.5979C69.2761 95.9408 69.4688 96.4058 69.4688 96.8906V107.859Z" fill="#40C3FF"/>
<path d="M96.8906 95.0625H93.2344C91.7798 95.0625 90.3849 95.6403 89.3563 96.6688C88.3278 97.6974 87.75 99.0923 87.75 100.547V107.859C87.75 109.314 88.3278 110.709 89.3563 111.737C90.3849 112.766 91.7798 113.344 93.2344 113.344H96.8906C98.3452 113.344 99.7401 112.766 100.769 111.737C101.797 110.709 102.375 109.314 102.375 107.859V100.547C102.375 99.0923 101.797 97.6974 100.769 96.6688C99.7401 95.6403 98.3452 95.0625 96.8906 95.0625ZM98.7188 107.859C98.7188 108.344 98.5261 108.809 98.1833 109.152C97.8405 109.495 97.3755 109.688 96.8906 109.688H93.2344C92.7495 109.688 92.2845 109.495 91.9417 109.152C91.5989 108.809 91.4062 108.344 91.4062 107.859V100.547C91.4062 100.062 91.5989 99.597 91.9417 99.2542C92.2845 98.9114 92.7495 98.7188 93.2344 98.7188H96.8906C97.3755 98.7188 97.8405 98.9114 98.1833 99.2542C98.5261 99.597 98.7188 100.062 98.7188 100.547V107.859Z" fill="#40C3FF"/>
<path d="M29.25 102.375H58.5V106.031H29.25V102.375Z" fill="#40C3FF"/>
</svg>