<svg width="26" height="26" viewBox="0 0 26 26" fill="none" xmlns="http://www.w3.org/2000/svg">
<path d="M13.6555 20.0796C13.2655 20.3829 12.713 20.3829 12.323 20.0796L5.66048 14.9013C5.27213 14.598 4.72716 14.598 4.33881 14.9013C3.78631 15.3346 3.78631 16.1688 4.33881 16.6021L11.6621 22.3004C12.4421 22.9071 13.5363 22.9071 14.3271 22.3004L21.6505 16.6021C22.203 16.1688 22.203 15.3346 21.6505 14.9013L21.6396 14.8904C21.2513 14.5871 20.7063 14.5871 20.318 14.8904L13.6555 20.0796Z" fill="#0095D9"/>
<path d="M14.338 16.808L21.6613 11.1096C22.2138 10.6763 22.2138 9.8313 21.6613 9.39796L14.338 3.69963C13.558 3.09296 12.4638 3.09296 11.673 3.69963L4.34962 9.4088C3.79712 9.84213 3.79712 10.6871 4.34962 11.1205L11.673 16.8188C12.453 17.4255 13.558 17.4255 14.338 16.808Z" stroke="#40C3FF" stroke-width="2"/>
</svg>
